# xmcd CD database file
#
# Track frame offsets:
#	150
#	50992
#	79065
#	107475
#	150315
#	196655
#
# Disc length: 2769 seconds
#
# Revision: 1
# Processed by: cddbd v1.5.1PL2 Copyright (c) Steve Scherf et al.
# Submitted via: CDex 1.50
#
DISCID=3f0acf06
DTITLE=Tsuyoshi Yamamoto - Live in Montreux
DYEAR=1979
DGENRE=Jazz
TTITLE0=Blues in the Closet
TTITLE1=A Shade of Love
TTITLE2=Almost Like Being Love
TTITLE3=Girl of My Dreams
TTITLE4=It's All Right with Me
TTITLE5=Nanatsu no Ko
EXTD=YEAR: 1979
EXTT0=
EXTT1=
EXTT2=
EXTT3=
EXTT4=
EXTT5=
PLAYORDER=
